<?xml version="1.0" encoding="UTF-8" standalone="no"?>
<svg
   version="1.1"
   id="Layer_1"
   x="0px"
   y="0px"
   width="400"
   height="400"
   viewBox="0 0 400 400"
   enable-background="new 0 0 400 400"
   xml:space="preserve"
   xmlns="http://www.w3.org/2000/svg"
   xmlns:svg="http://www.w3.org/2000/svg"><defs
   id="defs8" />
<g
   id="g11"><circle
     style="fill:#1c1b20;fill-opacity:1;stroke-width:107.393;paint-order:markers fill stroke"
     id="path11"
     cx="200"
     cy="200"
     r="200" /><g
     id="g8"
     transform="matrix(0.75844912,0,0,0.85039098,46.890359,31.45315)">
	
	
	
	
	
	
	
	<path
   fill-rule="evenodd"
   clip-rule="evenodd"
   fill="#e8def7"
   d="m 315.439,60.205 c 1.787,-0.289 3.574,-0.578 5.361,-0.868 -0.039,1.732 -0.077,3.464 -0.116,5.195 -3.008,0.085 -5.786,-0.11 -5.245,-4.327 z"
   id="path8" /><path
   fill-rule="evenodd"
   clip-rule="evenodd"
   fill="#e8def7"
   d="m 76.068,265.397 c 0.627,-0.002 1.253,-0.004 1.879,-0.006 0.537,0.809 1.492,1.6 1.522,2.426 0.058,1.621 -0.037,3.475 -0.817,4.787 -0.324,0.545 -3.364,0.428 -3.776,-0.244 -0.784,-1.279 -0.802,-3.191 -0.668,-4.801 0.063,-0.767 1.206,-1.443 1.86,-2.162 z"
   id="path7" /><path
   fill-rule="evenodd"
   clip-rule="evenodd"
   fill="#e8def7"
   d="m 69.654,61.816 c 21.393,5.393 42.789,10.766 64.168,16.207 1.89,0.48 4.033,0.985 5.42,2.204 2.776,2.439 5.391,5.571 3.693,9.545 -1.738,4.065 -5.607,6.229 -9.805,5.071 C 122.933,92.027 112.486,89.489 102.937,85.105 92.283,80.212 82.452,73.495 72.406,67.336 70.689,66.283 69.693,64.052 68.365,62.365 68.795,62.182 69.225,62 69.654,61.816 Z"
   id="path6" /><path
   fill-rule="evenodd"
   clip-rule="evenodd"
   fill="#e8def7"
   d="m 67.523,219.618 c 4.197,1.648 7.506,3.984 10.863,4.059 7.878,0.174 15.971,0.176 23.627,-1.424 10.828,-2.264 21.365,-5.955 31.98,-9.188 8.629,-2.626 15.992,0.807 23.044,4.889 2.97,1.719 1.642,5.57 -2.653,6.766 -5.098,1.418 -10.439,1.93 -15.63,3.045 -13.438,2.885 -26.912,5.639 -40.251,8.934 -8.403,2.076 -25.589,-4.662 -29.799,-12.482 -0.625,-1.165 -0.694,-2.628 -1.181,-4.599 z"
   id="path5" /><path
   fill-rule="evenodd"
   clip-rule="evenodd"
   fill="#e8def7"
   d="m 68.487,175.299 c 6.276,1.424 11.224,3.271 16.259,3.553 14.689,0.82 28.029,-4.318 40.885,-10.738 8.125,-4.058 20.641,-2.513 27.361,3.815 3.357,3.161 2.486,6.568 -2.486,7.967 -6.548,1.842 -13.24,3.17 -19.874,4.702 -9.708,2.243 -19.384,4.643 -29.138,6.662 -12.387,2.564 -22.48,-2.072 -30.969,-10.798 -1.06,-1.09 -1.237,-3.042 -2.038,-5.163 z"
   id="path4" /><path
   fill-rule="evenodd"
   clip-rule="evenodd"
   fill="#e8def7"
   d="M 67.105,152.946 C 66,152.51 64.691,152.177 63.572,151.522 53.21,145.459 44.673,137.385 37.774,127.601 c -0.696,-0.987 -0.497,-2.607 -0.712,-3.934 1.047,0.169 2.398,-0.024 3.098,0.561 12.611,10.55 26.93,9.706 41.709,6.583 18.875,-3.989 37.811,-7.693 56.67,-11.755 4.353,-0.938 8.643,-2.515 12.713,-4.348 9.428,-4.243 18.232,-1.826 26.859,2.144 4.656,2.142 4.846,6.357 0.588,9.207 -1.465,0.98 -3.312,1.873 -5.018,1.936 -26.875,0.993 -52.545,8.13 -78.164,15.38 -8.735,2.472 -17.205,5.884 -25.8,8.854 -0.774,0.267 -1.581,0.437 -2.612,0.717 z"
   id="path3" /><path
   fill-rule="evenodd"
   clip-rule="evenodd"
   fill="#e8def7"
   d="m 53.5,269.665 c 4.4,0.924 9.208,1.021 13.113,2.947 7.591,3.746 14.942,2.928 22.66,1.18 12.479,-2.83 25.076,-5.154 37.516,-8.143 4.381,-1.053 8.545,-3.23 12.621,-5.27 3.248,-1.627 6.047,-2.156 9.26,0.133 5.416,3.861 11.119,7.318 16.55,11.16 4.722,3.342 4.571,5.9 2.138,10.939 -3.23,6.686 -5.695,13.768 -8.131,20.805 -2.171,6.275 -3.76,12.748 -5.777,19.08 -2.303,7.221 -4.574,8.816 -11.676,7.256 -8.049,-1.768 -15.496,0.701 -23.089,2.375 -4.706,1.039 -9.337,2.436 -14.06,3.387 -4.805,0.969 -9.133,2.215 -11.814,7.004 -1.773,3.17 -5.078,3.541 -7.621,1 -2.478,-2.475 -5.18,-5.373 -6.167,-8.582 C 74.822,321.282 70.868,307.528 67.534,293.639 65.559,285.42 61.723,278.916 54.954,274 c -0.863,-0.627 -1.433,-1.66 -2.138,-2.504 0.227,-0.61 0.455,-1.22 0.684,-1.831 z m 39.861,54.986 c 14.92,-2.672 29.25,-5.238 43.502,-7.793 2.098,-11.988 4.17,-23.422 6.067,-34.883 0.805,-4.863 -0.483,-6.451 -4.696,-5.635 -18.388,3.562 -36.742,7.303 -55.686,11.094 3.62,12.46 7.122,24.51 10.813,37.217 z"
   id="path2" /><path
   fill-rule="evenodd"
   clip-rule="evenodd"
   fill="#e8def7"
   d="m 324.771,319.964 c 3.055,2.041 6.105,3.561 8.428,5.824 1.454,1.418 1.812,3.961 2.662,5.998 -1.897,0.775 -3.804,2.223 -5.693,2.203 -6.481,-0.068 -12.996,-1.299 -19.429,-0.916 -19.249,1.146 -38.467,2.82 -57.692,4.348 -4.642,0.369 -9.264,0.992 -13.898,1.451 -3.836,0.379 -7.978,-1.033 -10.372,4.18 -1.193,2.598 -4.639,2.68 -7.314,0.242 -7.752,-7.064 -11.807,-15.795 -12.665,-26.225 -1.063,-12.914 -2.187,-25.832 -3.689,-38.701 -1.057,-9.051 -5.637,-16.578 -11.579,-23.357 -0.963,-1.098 -1.309,-2.736 -1.939,-4.123 1.701,-0.23 3.623,-1.09 5.062,-0.582 6.262,2.207 12.372,4.84 18.562,7.25 1.519,0.592 3.169,1.416 4.701,1.309 12.254,-0.855 24.493,-1.912 36.977,-2.926 0,-23.809 0,-47.228 0,-71.47 -6.997,1.381 -13.806,2.482 -20.491,4.093 -13.897,3.349 -27.728,6.982 -41.597,10.452 -1.404,0.352 -3.113,0.954 -4.297,0.48 -11.221,-4.489 -18.762,-13.065 -26.268,-23.36 2.078,0 3.019,-0.283 3.641,0.042 12.037,6.289 24.766,5.664 37.584,3.752 17.082,-2.547 34.142,-5.242 51.705,-7.949 0,-4.532 0,-8.487 -0.001,-12.443 0,-11.163 -0.101,-22.328 0.033,-33.489 0.09,-7.416 -3.671,-12.648 -9.223,-16.777 -1.134,-0.843 -3.428,-0.779 -4.956,-0.337 -13.257,3.84 -26.451,7.897 -39.692,11.793 -2.083,0.612 -4.311,0.731 -6.472,1.079 -0.273,-0.552 -0.549,-1.104 -0.822,-1.656 1.791,-1.382 3.411,-3.108 5.398,-4.094 23.679,-11.742 47.514,-23.173 71.06,-35.171 6.131,-3.123 11.818,-7.468 16.954,-12.09 4.848,-4.363 4.339,-6.124 -0.562,-10.266 -1.271,-1.074 -2.798,-1.899 -3.874,-3.131 -0.764,-0.874 -0.968,-2.238 -1.421,-3.384 1.184,-0.277 2.452,-0.979 3.539,-0.765 11.141,2.206 20.464,7.854 28.299,15.877 2.592,2.653 5.124,5.832 6.341,9.249 1.812,5.091 -0.446,7.356 -5.815,8.29 -4.888,0.85 -9.813,1.946 -14.456,3.656 -14.314,5.275 -28.501,10.896 -43.617,16.722 5.938,3.885 11.42,7.861 17.276,11.178 4.333,2.453 5.63,5.196 4.401,10.151 -3.491,14.08 -5.219,28.406 -4.577,43.902 14.741,-2.698 29.31,-4.371 43.289,-8.197 14.725,-4.03 28.209,-2.945 41.45,4.177 0.732,0.394 1.639,0.69 2.106,1.305 1.7,2.237 3.249,4.589 4.854,6.898 -2.718,1.153 -5.521,3.475 -8.139,3.279 -23.753,-1.774 -47.192,1.632 -70.712,3.737 -4.278,0.383 -8.545,0.896 -13.473,1.417 -0.541,23.421 -1.074,46.477 -1.641,71.004 14.634,-2.941 28.289,-5.541 41.868,-8.49 4.944,-1.072 9.609,-1.492 13.793,1.744 5.254,4.064 10.578,8.09 15.43,12.609 4.835,4.504 4.46,9.594 0.172,14.518 -2.257,2.594 -4.471,5.508 -5.691,8.668 -4.669,12.088 -8.927,24.334 -13.518,37.022 z m -14.242,-3.166 c 0.567,-3.855 1.235,-8.441 1.917,-13.023 1.787,-12.004 3.634,-24.002 5.349,-36.016 0.959,-6.719 -1.303,-8.861 -8.169,-7.92 -3.129,0.428 -6.227,1.074 -9.351,1.543 -25.801,3.871 -51.437,9.213 -77.727,8.771 -0.757,-0.014 -1.519,0.277 -2.625,0.494 2.594,18.605 5.15,36.943 7.781,55.811 27.875,-3.25 54.909,-6.404 82.825,-9.66 z"
   id="path1" />
</g></g>
</svg>
