<svg xmlns="http://www.w3.org/2000/svg" xml:space="preserve" width="400" height="400" viewBox="0 0 400 400"><g fill="#e8def7" fill-rule="evenodd" clip-rule="evenodd"><path d="m337.816 12.242 6.505-1.182-.14 7.069c-3.65.116-7.022-.15-6.365-5.887M47.335 291.431l2.28-.008c.651 1.1 1.81 2.177 1.847 3.3.07 2.206-.045 4.729-.992 6.514-.393.742-4.082.582-4.582-.332-.951-1.74-.973-4.342-.81-6.532.076-1.044 1.463-1.964 2.257-2.942M39.551 14.433c25.96 7.338 51.925 14.649 77.87 22.052 2.293.653 4.893 1.34 6.576 2.999 3.37 3.319 6.542 7.58 4.482 12.987-2.11 5.531-6.804 8.475-11.899 6.9-12.374-3.832-25.052-7.285-36.64-13.25-12.928-6.657-24.858-15.797-37.05-24.177-2.083-1.433-3.292-4.468-4.903-6.764q.783-.372 1.564-.747m-2.586 214.71c5.093 2.242 9.109 5.42 13.182 5.523 9.56.236 19.382.24 28.672-1.938 13.14-3.08 25.927-8.102 38.809-12.501 10.471-3.573 19.406 1.098 27.964 6.652 3.604 2.339 1.992 7.579-3.22 9.206-6.186 1.93-12.667 2.626-18.967 4.143-16.307 3.925-32.658 7.672-48.845 12.156-10.197 2.824-31.053-6.343-36.162-16.984-.758-1.585-.842-3.575-1.433-6.257m1.17-60.302c7.616 1.938 13.62 4.451 19.73 4.835 17.826 1.115 34.014-5.876 49.615-14.61 9.86-5.522 25.048-3.42 33.203 5.19 4.074 4.301 3.017 8.937-3.017 10.84-7.946 2.506-16.067 4.313-24.117 6.398-11.78 3.052-23.523 6.317-35.36 9.064-15.031 3.489-27.28-2.819-37.581-14.692-1.286-1.483-1.501-4.139-2.473-7.025m-1.677-30.414c-1.341-.593-2.93-1.046-4.288-1.937-12.574-8.25-22.934-19.235-31.306-32.548C.019 102.6.261 100.395 0 98.59c1.27.23 2.91-.033 3.76.763 15.303 14.354 32.68 13.206 50.614 8.957 22.905-5.428 45.884-10.467 68.77-15.994 5.283-1.277 10.489-3.422 15.428-5.916 11.44-5.773 22.125-2.485 32.594 2.917 5.65 2.914 5.88 8.65.713 12.527-1.778 1.334-4.019 2.549-6.09 2.634-32.613 1.351-63.764 11.062-94.853 20.927-10.6 3.363-20.878 8.006-31.309 12.047-.939.363-1.918.594-3.17.975"/><path d="M19.948 297.238c5.34 1.257 11.174 1.39 15.913 4.01 9.212 5.097 18.132 3.984 27.498 1.605 15.144-3.85 30.43-7.012 45.526-11.08 5.317-1.432 10.37-4.394 15.316-7.17 3.942-2.213 7.338-2.933 11.237.181 6.573 5.254 13.493 9.957 20.084 15.185 5.73 4.547 5.547 8.028 2.595 14.884-3.92 9.097-6.911 18.733-9.867 28.308-2.635 8.538-4.563 17.345-7.011 25.96-2.795 9.825-5.55 11.996-14.169 9.873-9.768-2.406-18.805.954-28.019 3.232-5.71 1.413-11.33 3.314-17.062 4.608-5.831 1.318-11.083 3.014-14.337 9.53-2.151 4.313-6.162 4.818-9.248 1.36-3.007-3.367-6.286-7.31-7.484-11.676-5.098-18.578-9.896-37.292-13.942-56.19-2.396-11.183-7.051-20.033-15.266-26.722-1.047-.853-1.739-2.258-2.594-3.407q.413-1.245.83-2.49m48.372 74.816c18.106-3.636 35.495-7.127 52.79-10.604 2.546-16.311 5.06-31.868 7.363-47.463.977-6.616-.586-8.777-5.699-7.667-22.314 4.847-44.587 9.937-67.576 15.095 4.393 16.953 8.643 33.349 13.122 50.639m280.82-6.379c3.708 2.777 7.409 4.845 10.228 7.925 1.764 1.929 2.199 5.389 3.23 8.16-2.302 1.055-4.616 3.025-6.908 2.998-7.865-.092-15.771-1.767-23.578-1.246-23.359 1.559-46.68 3.837-70.01 5.916-5.633.502-11.242 1.35-16.866 1.974-4.655.516-9.681-1.406-12.586 5.687-1.448 3.535-5.63 3.647-8.876.33-9.407-9.612-14.328-21.491-15.37-35.683-1.29-17.57-2.653-35.147-4.476-52.657-1.283-12.315-6.84-22.557-14.051-31.78-1.169-1.494-1.589-3.723-2.353-5.61 2.064-.313 4.396-1.483 6.143-.792 7.599 3.003 15.013 6.585 22.525 9.864 1.843.806 3.846 1.927 5.705 1.781 14.87-1.163 29.722-2.601 44.872-3.98v-97.245c-8.491 1.88-16.754 3.377-24.866 5.57-16.864 4.556-33.649 9.5-50.479 14.22-1.704.48-3.778 1.299-5.214.654-13.617-6.108-22.768-17.777-31.877-31.785 2.522 0 3.663-.385 4.418.058 14.607 8.557 30.054 7.706 45.61 5.105 20.728-3.466 41.431-7.133 62.744-10.816l-.001-16.93c0-15.189-.123-30.38.04-45.566.11-10.09-4.455-17.21-11.192-22.827-1.376-1.147-4.16-1.06-6.014-.459-16.088 5.225-32.1 10.745-48.167 16.046-2.528.833-5.232.995-7.854 1.468l-.998-2.253c2.174-1.88 4.14-4.229 6.55-5.57 28.736-15.977 57.66-31.53 86.233-47.855 7.44-4.25 14.342-10.161 20.574-16.45 5.883-5.936 5.266-8.333-.682-13.968-1.542-1.462-3.395-2.584-4.7-4.26-.928-1.19-1.176-3.045-1.725-4.605 1.437-.377 2.975-1.332 4.294-1.04 13.52 3 24.834 10.686 34.342 21.602 3.145 3.61 6.218 7.935 7.695 12.584 2.199 6.927-.542 10.01-7.057 11.28-5.932 1.157-11.908 2.648-17.543 4.974-17.37 7.178-34.586 14.826-52.93 22.753 7.206 5.286 13.859 10.696 20.965 15.209 5.258 3.338 6.832 7.07 5.34 13.812-4.236 19.157-6.333 38.65-5.553 59.734 17.888-3.671 35.568-5.947 52.532-11.153 17.869-5.484 34.232-4.007 50.3 5.683.888.536 1.989.939 2.556 1.776 2.063 3.043 3.942 6.244 5.89 9.385-3.298 1.57-6.7 4.729-9.877 4.462-28.825-2.414-57.268 2.22-85.81 5.084-5.192.522-10.37 1.22-16.35 1.928l-1.991 96.61c17.758-4.001 34.329-7.539 50.807-11.551 6-1.459 11.661-2.03 16.738 2.373 6.376 5.53 12.837 11.007 18.725 17.156 5.867 6.128 5.412 13.054.209 19.753-2.74 3.53-5.426 7.495-6.906 11.794-5.666 16.447-10.834 33.11-16.405 50.373m-17.283-4.307c.688-5.246 1.499-11.486 2.327-17.72 2.168-16.333 4.41-32.658 6.49-49.004 1.164-9.142-1.58-12.057-9.913-10.776-3.797.582-7.556 1.46-11.347 2.1-31.31 5.266-62.42 12.535-94.323 11.933-.919-.019-1.844.377-3.186.672l9.443 75.938c33.826-4.422 66.633-8.713 100.51-13.143"/></g></svg>