<?xml version="1.0" encoding="utf-8"?>
<!-- Uploaded to: SVG Repo, www.svgrepo.com, Generator: SVG Repo Mixer Tools -->
<svg fill="#e8def7" width="800px" height="800px" viewBox="0 0 32 32" version="1.1" xmlns="http://www.w3.org/2000/svg">
<title>webcam</title>
<path d="M16 22.633c0 0 0 0 0 0 4.768 0 8.634-3.865 8.634-8.634s-3.865-8.634-8.634-8.634c-4.768 0-8.633 3.865-8.634 8.633v0c0.005 4.767 3.867 8.629 8.633 8.635h0.001zM16 7.865c0 0 0 0 0 0 3.388 0 6.134 2.746 6.134 6.134s-2.746 6.134-6.134 6.134c-3.388 0-6.134-2.746-6.134-6.134 0-0 0-0.001 0-0.001v0c0.004-3.386 2.748-6.129 6.133-6.133h0zM23.558 24.864c3.46-2.425 5.694-6.393 5.694-10.884 0-7.318-5.932-13.25-13.25-13.25s-13.25 5.932-13.25 13.25c0 4.471 2.214 8.424 5.606 10.824l0.041 0.028-4.283 4.284c-0.227 0.226-0.367 0.539-0.367 0.885 0 0.69 0.56 1.25 1.25 1.25 0 0 0 0 0 0h22c0.69-0.001 1.25-0.561 1.25-1.252 0-0.349-0.143-0.664-0.372-0.891l-0-0zM5.252 13.998c0-5.936 4.812-10.748 10.748-10.748s10.748 4.812 10.748 10.748c0 5.936-4.812 10.748-10.748 10.748v0c-5.933-0.007-10.741-4.815-10.748-10.747v-0.001zM8.018 28.75l2.639-2.639c1.572 0.717 3.41 1.135 5.346 1.135 1.911 0 3.727-0.408 5.366-1.14l-0.083 0.033 2.659 2.611z"></path>
</svg>